<mxfile host="app.diagrams.net" agent="Mozilla/5.0 (Windows NT 10.0; Win64; x64) AppleWebKit/537.36 (KHTML, like Gecko) Chrome/136.0.0.0 Safari/537.36" version="26.2.14">
  <diagram name="Page-1" id="Cee4J5de4uLVUNiFVLxo">
    <mxGraphModel dx="1310" dy="833" grid="1" gridSize="10" guides="1" tooltips="1" connect="1" arrows="1" fold="1" page="1" pageScale="1" pageWidth="850" pageHeight="1100" math="0" shadow="0">
      <root>
        <mxCell id="0" />
        <mxCell id="1" parent="0" />
        <mxCell id="-KrzIHBW4Un-FwNq5tkQ-1" value="User Interface Operations" style="whiteSpace=wrap;strokeWidth=2;" vertex="1" parent="1">
          <mxGeometry x="828" y="20" width="1177" height="1021" as="geometry" />
        </mxCell>
        <mxCell id="-KrzIHBW4Un-FwNq5tkQ-2" value="Playback Control" style="whiteSpace=wrap;strokeWidth=2;" vertex="1" parent="1">
          <mxGeometry x="20" y="1320" width="1159" height="454" as="geometry" />
        </mxCell>
        <mxCell id="-KrzIHBW4Un-FwNq5tkQ-3" value="Playlist Management" style="whiteSpace=wrap;strokeWidth=2;" vertex="1" parent="1">
          <mxGeometry x="1300" y="1320" width="1046" height="583" as="geometry" />
        </mxCell>
        <mxCell id="-KrzIHBW4Un-FwNq5tkQ-4" value="Start" style="rounded=1;whiteSpace=wrap;arcSize=50;strokeWidth=2;" vertex="1" parent="1">
          <mxGeometry x="733" y="957" width="60" height="39" as="geometry" />
        </mxCell>
        <mxCell id="-KrzIHBW4Un-FwNq5tkQ-5" value="User Interface" style="rhombus;strokeWidth=2;whiteSpace=wrap;" vertex="1" parent="1">
          <mxGeometry x="1270" y="1091" width="156" height="156" as="geometry" />
        </mxCell>
        <mxCell id="-KrzIHBW4Un-FwNq5tkQ-6" value="Add Song to Playlist" style="whiteSpace=wrap;strokeWidth=2;" vertex="1" parent="1">
          <mxGeometry x="1356" y="1404" width="202" height="54" as="geometry" />
        </mxCell>
        <mxCell id="-KrzIHBW4Un-FwNq5tkQ-7" value="Remove Song from Playlist" style="whiteSpace=wrap;strokeWidth=2;" vertex="1" parent="1">
          <mxGeometry x="1679" y="1404" width="249" height="54" as="geometry" />
        </mxCell>
        <mxCell id="-KrzIHBW4Un-FwNq5tkQ-8" value="Print Playlist" style="whiteSpace=wrap;strokeWidth=2;" vertex="1" parent="1">
          <mxGeometry x="2049" y="1404" width="151" height="54" as="geometry" />
        </mxCell>
        <mxCell id="-KrzIHBW4Un-FwNq5tkQ-9" value="Playback Action?" style="rhombus;strokeWidth=2;whiteSpace=wrap;" vertex="1" parent="1">
          <mxGeometry x="307" y="1345" width="173" height="173" as="geometry" />
        </mxCell>
        <mxCell id="-KrzIHBW4Un-FwNq5tkQ-10" value="Create Node in LinkedList" style="whiteSpace=wrap;strokeWidth=2;" vertex="1" parent="1">
          <mxGeometry x="1335" y="1591" width="245" height="54" as="geometry" />
        </mxCell>
        <mxCell id="-KrzIHBW4Un-FwNq5tkQ-11" value="Update LinkedList" style="whiteSpace=wrap;strokeWidth=2;" vertex="1" parent="1">
          <mxGeometry x="1441" y="1695" width="189" height="54" as="geometry" />
        </mxCell>
        <mxCell id="-KrzIHBW4Un-FwNq5tkQ-12" value="Find Node in LinkedList" style="whiteSpace=wrap;strokeWidth=2;" vertex="1" parent="1">
          <mxGeometry x="1690" y="1591" width="227" height="54" as="geometry" />
        </mxCell>
        <mxCell id="-KrzIHBW4Un-FwNq5tkQ-13" value="Delete Node" style="whiteSpace=wrap;strokeWidth=2;" vertex="1" parent="1">
          <mxGeometry x="1729" y="1695" width="148" height="54" as="geometry" />
        </mxCell>
        <mxCell id="-KrzIHBW4Un-FwNq5tkQ-14" value="Return Song Object" style="whiteSpace=wrap;strokeWidth=2;" vertex="1" parent="1">
          <mxGeometry x="1762" y="1824" width="199" height="54" as="geometry" />
        </mxCell>
        <mxCell id="-KrzIHBW4Un-FwNq5tkQ-15" value="Traverse LinkedList" style="whiteSpace=wrap;strokeWidth=2;" vertex="1" parent="1">
          <mxGeometry x="2026" y="1591" width="198" height="54" as="geometry" />
        </mxCell>
        <mxCell id="-KrzIHBW4Un-FwNq5tkQ-16" value="Format Display with Colors" style="whiteSpace=wrap;strokeWidth=2;" vertex="1" parent="1">
          <mxGeometry x="1998" y="1695" width="252" height="54" as="geometry" />
        </mxCell>
        <mxCell id="-KrzIHBW4Un-FwNq5tkQ-17" value="Render UI" style="whiteSpace=wrap;strokeWidth=2;" vertex="1" parent="1">
          <mxGeometry x="2117" y="1824" width="130" height="54" as="geometry" />
        </mxCell>
        <mxCell id="-KrzIHBW4Un-FwNq5tkQ-18" value="Play Song" style="whiteSpace=wrap;strokeWidth=2;" vertex="1" parent="1">
          <mxGeometry x="80" y="1591" width="128" height="54" as="geometry" />
        </mxCell>
        <mxCell id="-KrzIHBW4Un-FwNq5tkQ-19" value="Pause Playback" style="whiteSpace=wrap;strokeWidth=2;" vertex="1" parent="1">
          <mxGeometry x="309" y="1591" width="169" height="54" as="geometry" />
        </mxCell>
        <mxCell id="-KrzIHBW4Un-FwNq5tkQ-20" value="Resume Playback" style="whiteSpace=wrap;strokeWidth=2;" vertex="1" parent="1">
          <mxGeometry x="583" y="1591" width="183" height="54" as="geometry" />
        </mxCell>
        <mxCell id="-KrzIHBW4Un-FwNq5tkQ-21" value="Stop Playback" style="whiteSpace=wrap;strokeWidth=2;" vertex="1" parent="1">
          <mxGeometry x="868" y="1591" width="160" height="54" as="geometry" />
        </mxCell>
        <mxCell id="-KrzIHBW4Un-FwNq5tkQ-22" value="Update Playback Status" style="whiteSpace=wrap;strokeWidth=2;" vertex="1" parent="1">
          <mxGeometry x="79" y="1695" width="229" height="54" as="geometry" />
        </mxCell>
        <mxCell id="-KrzIHBW4Un-FwNq5tkQ-23" value="Update Playback Status" style="whiteSpace=wrap;strokeWidth=2;" vertex="1" parent="1">
          <mxGeometry x="358" y="1695" width="229" height="54" as="geometry" />
        </mxCell>
        <mxCell id="-KrzIHBW4Un-FwNq5tkQ-24" value="Update Playback Status" style="whiteSpace=wrap;strokeWidth=2;" vertex="1" parent="1">
          <mxGeometry x="636" y="1695" width="229" height="54" as="geometry" />
        </mxCell>
        <mxCell id="-KrzIHBW4Un-FwNq5tkQ-25" value="Update Playback Status" style="whiteSpace=wrap;strokeWidth=2;" vertex="1" parent="1">
          <mxGeometry x="915" y="1695" width="229" height="54" as="geometry" />
        </mxCell>
        <mxCell id="-KrzIHBW4Un-FwNq5tkQ-26" value="Read Command Input" style="whiteSpace=wrap;strokeWidth=2;" vertex="1" parent="1">
          <mxGeometry x="1035" y="373" width="212" height="54" as="geometry" />
        </mxCell>
        <mxCell id="-KrzIHBW4Un-FwNq5tkQ-27" value="Parse Command" style="whiteSpace=wrap;strokeWidth=2;" vertex="1" parent="1">
          <mxGeometry x="1055" y="477" width="174" height="54" as="geometry" />
        </mxCell>
        <mxCell id="-KrzIHBW4Un-FwNq5tkQ-28" value="Handle Command" style="rhombus;strokeWidth=2;whiteSpace=wrap;" vertex="1" parent="1">
          <mxGeometry x="1052" y="581" width="180" height="180" as="geometry" />
        </mxCell>
        <mxCell id="-KrzIHBW4Un-FwNq5tkQ-29" value="Execute Basic Command" style="whiteSpace=wrap;strokeWidth=2;" vertex="1" parent="1">
          <mxGeometry x="863" y="950" width="234" height="54" as="geometry" />
        </mxCell>
        <mxCell id="-KrzIHBW4Un-FwNq5tkQ-30" value="Parse Extended Command" style="whiteSpace=wrap;strokeWidth=2;" vertex="1" parent="1">
          <mxGeometry x="1154" y="834" width="245" height="54" as="geometry" />
        </mxCell>
        <mxCell id="-KrzIHBW4Un-FwNq5tkQ-31" value="Execute Extended Command" style="whiteSpace=wrap;strokeWidth=2;" vertex="1" parent="1">
          <mxGeometry x="1147" y="938" width="260" height="78" as="geometry" />
        </mxCell>
        <mxCell id="-KrzIHBW4Un-FwNq5tkQ-32" value="UI Operations" style="rhombus;strokeWidth=2;whiteSpace=wrap;" vertex="1" parent="1">
          <mxGeometry x="1569" y="45" width="151" height="151" as="geometry" />
        </mxCell>
        <mxCell id="-KrzIHBW4Un-FwNq5tkQ-33" value="Print Header" style="whiteSpace=wrap;strokeWidth=2;" vertex="1" parent="1">
          <mxGeometry x="1457" y="950" width="150" height="54" as="geometry" />
        </mxCell>
        <mxCell id="-KrzIHBW4Un-FwNq5tkQ-34" value="Read Input" style="whiteSpace=wrap;strokeWidth=2;" vertex="1" parent="1">
          <mxGeometry x="1073" y="269" width="137" height="54" as="geometry" />
        </mxCell>
        <mxCell id="-KrzIHBW4Un-FwNq5tkQ-35" value="Clear Screen" style="whiteSpace=wrap;strokeWidth=2;" vertex="1" parent="1">
          <mxGeometry x="1657" y="950" width="151" height="54" as="geometry" />
        </mxCell>
        <mxCell id="-KrzIHBW4Un-FwNq5tkQ-36" value="Sleep" style="whiteSpace=wrap;strokeWidth=2;" vertex="1" parent="1">
          <mxGeometry x="1857" y="950" width="99" height="54" as="geometry" />
        </mxCell>
        <mxCell id="-KrzIHBW4Un-FwNq5tkQ-37" value="End" style="rounded=1;whiteSpace=wrap;arcSize=50;strokeWidth=2;" vertex="1" parent="1">
          <mxGeometry x="1214" y="1412" width="51" height="39" as="geometry" />
        </mxCell>
        <mxCell id="-KrzIHBW4Un-FwNq5tkQ-38" value="" style="curved=1;startArrow=none;endArrow=block;exitX=0.5;exitY=1.01;entryX=0;entryY=0.41;rounded=0;" edge="1" parent="1" source="-KrzIHBW4Un-FwNq5tkQ-4" target="-KrzIHBW4Un-FwNq5tkQ-5">
          <mxGeometry relative="1" as="geometry">
            <Array as="points">
              <mxPoint x="763" y="1066" />
            </Array>
          </mxGeometry>
        </mxCell>
        <mxCell id="-KrzIHBW4Un-FwNq5tkQ-39" value="Add Song Request" style="curved=1;startArrow=none;endArrow=block;exitX=0.98;exitY=1;entryX=0.5;entryY=0.01;rounded=0;" edge="1" parent="1" source="-KrzIHBW4Un-FwNq5tkQ-5" target="-KrzIHBW4Un-FwNq5tkQ-6">
          <mxGeometry relative="1" as="geometry">
            <Array as="points">
              <mxPoint x="1457" y="1284" />
            </Array>
          </mxGeometry>
        </mxCell>
        <mxCell id="-KrzIHBW4Un-FwNq5tkQ-40" value="Remove Song Request" style="curved=1;startArrow=none;endArrow=block;exitX=1;exitY=0.63;entryX=0.5;entryY=0.01;rounded=0;" edge="1" parent="1" source="-KrzIHBW4Un-FwNq5tkQ-5" target="-KrzIHBW4Un-FwNq5tkQ-7">
          <mxGeometry relative="1" as="geometry">
            <Array as="points">
              <mxPoint x="1804" y="1284" />
            </Array>
          </mxGeometry>
        </mxCell>
        <mxCell id="-KrzIHBW4Un-FwNq5tkQ-41" value="Display Request" style="curved=1;startArrow=none;endArrow=block;exitX=1;exitY=0.57;entryX=0.5;entryY=0.01;rounded=0;" edge="1" parent="1" source="-KrzIHBW4Un-FwNq5tkQ-5" target="-KrzIHBW4Un-FwNq5tkQ-8">
          <mxGeometry relative="1" as="geometry">
            <Array as="points">
              <mxPoint x="2124" y="1284" />
            </Array>
          </mxGeometry>
        </mxCell>
        <mxCell id="-KrzIHBW4Un-FwNq5tkQ-42" value="Playback Request" style="curved=1;startArrow=none;endArrow=block;exitX=0;exitY=0.56;entryX=0.5;entryY=0;rounded=0;" edge="1" parent="1" source="-KrzIHBW4Un-FwNq5tkQ-5" target="-KrzIHBW4Un-FwNq5tkQ-9">
          <mxGeometry relative="1" as="geometry">
            <Array as="points">
              <mxPoint x="394" y="1284" />
            </Array>
          </mxGeometry>
        </mxCell>
        <mxCell id="-KrzIHBW4Un-FwNq5tkQ-43" value="" style="curved=1;startArrow=none;endArrow=block;exitX=0.5;exitY=1.01;entryX=0.5;entryY=-0.01;rounded=0;" edge="1" parent="1" source="-KrzIHBW4Un-FwNq5tkQ-6" target="-KrzIHBW4Un-FwNq5tkQ-10">
          <mxGeometry relative="1" as="geometry">
            <Array as="points" />
          </mxGeometry>
        </mxCell>
        <mxCell id="-KrzIHBW4Un-FwNq5tkQ-44" value="" style="curved=1;startArrow=none;endArrow=block;exitX=0.5;exitY=0.99;entryX=0.28;entryY=-0.01;rounded=0;" edge="1" parent="1" source="-KrzIHBW4Un-FwNq5tkQ-10" target="-KrzIHBW4Un-FwNq5tkQ-11">
          <mxGeometry relative="1" as="geometry">
            <Array as="points">
              <mxPoint x="1457" y="1670" />
            </Array>
          </mxGeometry>
        </mxCell>
        <mxCell id="-KrzIHBW4Un-FwNq5tkQ-45" value="" style="curved=1;startArrow=none;endArrow=block;exitX=0.5;exitY=1.01;entryX=0.5;entryY=-0.01;rounded=0;" edge="1" parent="1" source="-KrzIHBW4Un-FwNq5tkQ-7" target="-KrzIHBW4Un-FwNq5tkQ-12">
          <mxGeometry relative="1" as="geometry">
            <Array as="points" />
          </mxGeometry>
        </mxCell>
        <mxCell id="-KrzIHBW4Un-FwNq5tkQ-46" value="" style="curved=1;startArrow=none;endArrow=block;exitX=0.5;exitY=0.99;entryX=0.5;entryY=-0.01;rounded=0;" edge="1" parent="1" source="-KrzIHBW4Un-FwNq5tkQ-12" target="-KrzIHBW4Un-FwNq5tkQ-13">
          <mxGeometry relative="1" as="geometry">
            <Array as="points" />
          </mxGeometry>
        </mxCell>
        <mxCell id="-KrzIHBW4Un-FwNq5tkQ-47" value="" style="curved=1;startArrow=none;endArrow=block;exitX=0.5;exitY=0.99;entryX=0.35;entryY=-0.01;rounded=0;" edge="1" parent="1" source="-KrzIHBW4Un-FwNq5tkQ-13" target="-KrzIHBW4Un-FwNq5tkQ-14">
          <mxGeometry relative="1" as="geometry">
            <Array as="points">
              <mxPoint x="1804" y="1799" />
            </Array>
          </mxGeometry>
        </mxCell>
        <mxCell id="-KrzIHBW4Un-FwNq5tkQ-48" value="" style="curved=1;startArrow=none;endArrow=block;exitX=0.5;exitY=1.01;entryX=0.5;entryY=-0.01;rounded=0;" edge="1" parent="1" source="-KrzIHBW4Un-FwNq5tkQ-8" target="-KrzIHBW4Un-FwNq5tkQ-15">
          <mxGeometry relative="1" as="geometry">
            <Array as="points" />
          </mxGeometry>
        </mxCell>
        <mxCell id="-KrzIHBW4Un-FwNq5tkQ-49" value="" style="curved=1;startArrow=none;endArrow=block;exitX=0.5;exitY=0.99;entryX=0.5;entryY=-0.01;rounded=0;" edge="1" parent="1" source="-KrzIHBW4Un-FwNq5tkQ-15" target="-KrzIHBW4Un-FwNq5tkQ-16">
          <mxGeometry relative="1" as="geometry">
            <Array as="points" />
          </mxGeometry>
        </mxCell>
        <mxCell id="-KrzIHBW4Un-FwNq5tkQ-50" value="" style="curved=1;startArrow=none;endArrow=block;exitX=0.5;exitY=0.99;entryX=0.27;entryY=-0.01;rounded=0;" edge="1" parent="1" source="-KrzIHBW4Un-FwNq5tkQ-16" target="-KrzIHBW4Un-FwNq5tkQ-17">
          <mxGeometry relative="1" as="geometry">
            <Array as="points">
              <mxPoint x="2124" y="1799" />
            </Array>
          </mxGeometry>
        </mxCell>
        <mxCell id="-KrzIHBW4Un-FwNq5tkQ-51" value="Play" style="curved=1;startArrow=none;endArrow=block;exitX=0;exitY=0.75;entryX=0.5;entryY=-0.01;rounded=0;" edge="1" parent="1" source="-KrzIHBW4Un-FwNq5tkQ-9" target="-KrzIHBW4Un-FwNq5tkQ-18">
          <mxGeometry relative="1" as="geometry">
            <Array as="points">
              <mxPoint x="144" y="1554" />
            </Array>
          </mxGeometry>
        </mxCell>
        <mxCell id="-KrzIHBW4Un-FwNq5tkQ-52" value="Pause" style="curved=1;startArrow=none;endArrow=block;exitX=0.5;exitY=1;entryX=0.5;entryY=-0.01;rounded=0;" edge="1" parent="1" source="-KrzIHBW4Un-FwNq5tkQ-9" target="-KrzIHBW4Un-FwNq5tkQ-19">
          <mxGeometry relative="1" as="geometry">
            <Array as="points" />
          </mxGeometry>
        </mxCell>
        <mxCell id="-KrzIHBW4Un-FwNq5tkQ-53" value="Resume" style="curved=1;startArrow=none;endArrow=block;exitX=1;exitY=0.72;entryX=0.5;entryY=-0.01;rounded=0;" edge="1" parent="1" source="-KrzIHBW4Un-FwNq5tkQ-9" target="-KrzIHBW4Un-FwNq5tkQ-20">
          <mxGeometry relative="1" as="geometry">
            <Array as="points">
              <mxPoint x="675" y="1554" />
            </Array>
          </mxGeometry>
        </mxCell>
        <mxCell id="-KrzIHBW4Un-FwNq5tkQ-54" value="Stop" style="curved=1;startArrow=none;endArrow=block;exitX=1;exitY=0.61;entryX=0.5;entryY=-0.01;rounded=0;" edge="1" parent="1" source="-KrzIHBW4Un-FwNq5tkQ-9" target="-KrzIHBW4Un-FwNq5tkQ-21">
          <mxGeometry relative="1" as="geometry">
            <Array as="points">
              <mxPoint x="947" y="1554" />
            </Array>
          </mxGeometry>
        </mxCell>
        <mxCell id="-KrzIHBW4Un-FwNq5tkQ-55" value="" style="curved=1;startArrow=none;endArrow=block;exitX=0.5;exitY=0.99;entryX=0.39;entryY=-0.01;rounded=0;" edge="1" parent="1" source="-KrzIHBW4Un-FwNq5tkQ-18" target="-KrzIHBW4Un-FwNq5tkQ-22">
          <mxGeometry relative="1" as="geometry">
            <Array as="points">
              <mxPoint x="144" y="1670" />
            </Array>
          </mxGeometry>
        </mxCell>
        <mxCell id="-KrzIHBW4Un-FwNq5tkQ-56" value="" style="curved=1;startArrow=none;endArrow=block;exitX=0.5;exitY=0.99;entryX=0.32;entryY=-0.01;rounded=0;" edge="1" parent="1" source="-KrzIHBW4Un-FwNq5tkQ-19" target="-KrzIHBW4Un-FwNq5tkQ-23">
          <mxGeometry relative="1" as="geometry">
            <Array as="points">
              <mxPoint x="394" y="1670" />
            </Array>
          </mxGeometry>
        </mxCell>
        <mxCell id="-KrzIHBW4Un-FwNq5tkQ-57" value="" style="curved=1;startArrow=none;endArrow=block;exitX=0.5;exitY=0.99;entryX=0.33;entryY=-0.01;rounded=0;" edge="1" parent="1" source="-KrzIHBW4Un-FwNq5tkQ-20" target="-KrzIHBW4Un-FwNq5tkQ-24">
          <mxGeometry relative="1" as="geometry">
            <Array as="points">
              <mxPoint x="675" y="1670" />
            </Array>
          </mxGeometry>
        </mxCell>
        <mxCell id="-KrzIHBW4Un-FwNq5tkQ-58" value="" style="curved=1;startArrow=none;endArrow=block;exitX=0.5;exitY=0.99;entryX=0.31;entryY=-0.01;rounded=0;" edge="1" parent="1" source="-KrzIHBW4Un-FwNq5tkQ-21" target="-KrzIHBW4Un-FwNq5tkQ-25">
          <mxGeometry relative="1" as="geometry">
            <Array as="points">
              <mxPoint x="947" y="1670" />
            </Array>
          </mxGeometry>
        </mxCell>
        <mxCell id="-KrzIHBW4Un-FwNq5tkQ-59" value="" style="curved=1;startArrow=none;endArrow=block;exitX=0.5;exitY=1.01;entryX=0.5;entryY=0.01;rounded=0;" edge="1" parent="1" source="-KrzIHBW4Un-FwNq5tkQ-26" target="-KrzIHBW4Un-FwNq5tkQ-27">
          <mxGeometry relative="1" as="geometry">
            <Array as="points" />
          </mxGeometry>
        </mxCell>
        <mxCell id="-KrzIHBW4Un-FwNq5tkQ-60" value="" style="curved=1;startArrow=none;endArrow=block;exitX=0.5;exitY=1.01;entryX=0.5;entryY=0;rounded=0;" edge="1" parent="1" source="-KrzIHBW4Un-FwNq5tkQ-27" target="-KrzIHBW4Un-FwNq5tkQ-28">
          <mxGeometry relative="1" as="geometry">
            <Array as="points" />
          </mxGeometry>
        </mxCell>
        <mxCell id="-KrzIHBW4Un-FwNq5tkQ-61" value="Basic Command" style="curved=1;startArrow=none;endArrow=block;exitX=0;exitY=0.89;entryX=0.5;entryY=0;rounded=0;" edge="1" parent="1" source="-KrzIHBW4Un-FwNq5tkQ-28" target="-KrzIHBW4Un-FwNq5tkQ-29">
          <mxGeometry relative="1" as="geometry">
            <Array as="points">
              <mxPoint x="980" y="797" />
            </Array>
          </mxGeometry>
        </mxCell>
        <mxCell id="-KrzIHBW4Un-FwNq5tkQ-62" value="Extended Command" style="curved=1;startArrow=none;endArrow=block;exitX=1;exitY=0.97;entryX=0.5;entryY=0;rounded=0;" edge="1" parent="1" source="-KrzIHBW4Un-FwNq5tkQ-28" target="-KrzIHBW4Un-FwNq5tkQ-30">
          <mxGeometry relative="1" as="geometry">
            <Array as="points">
              <mxPoint x="1277" y="797" />
            </Array>
          </mxGeometry>
        </mxCell>
        <mxCell id="-KrzIHBW4Un-FwNq5tkQ-63" value="" style="curved=1;startArrow=none;endArrow=block;exitX=0.5;exitY=1;entryX=0.5;entryY=0;rounded=0;" edge="1" parent="1" source="-KrzIHBW4Un-FwNq5tkQ-30" target="-KrzIHBW4Un-FwNq5tkQ-31">
          <mxGeometry relative="1" as="geometry">
            <Array as="points" />
          </mxGeometry>
        </mxCell>
        <mxCell id="-KrzIHBW4Un-FwNq5tkQ-64" value="Header" style="curved=1;startArrow=none;endArrow=block;exitX=0;exitY=1;entryX=0.5;entryY=0;rounded=0;" edge="1" parent="1" source="-KrzIHBW4Un-FwNq5tkQ-32" target="-KrzIHBW4Un-FwNq5tkQ-33">
          <mxGeometry relative="1" as="geometry">
            <Array as="points">
              <mxPoint x="1532" y="233" />
            </Array>
          </mxGeometry>
        </mxCell>
        <mxCell id="-KrzIHBW4Un-FwNq5tkQ-65" value="Input" style="curved=1;startArrow=none;endArrow=block;exitX=0;exitY=0.61;entryX=0.5;entryY=0.01;rounded=0;" edge="1" parent="1" source="-KrzIHBW4Un-FwNq5tkQ-32" target="-KrzIHBW4Un-FwNq5tkQ-34">
          <mxGeometry relative="1" as="geometry">
            <Array as="points">
              <mxPoint x="1141" y="233" />
            </Array>
          </mxGeometry>
        </mxCell>
        <mxCell id="-KrzIHBW4Un-FwNq5tkQ-66" value="Clear" style="curved=1;startArrow=none;endArrow=block;exitX=0.89;exitY=1;entryX=0.5;entryY=0;rounded=0;" edge="1" parent="1" source="-KrzIHBW4Un-FwNq5tkQ-32" target="-KrzIHBW4Un-FwNq5tkQ-35">
          <mxGeometry relative="1" as="geometry">
            <Array as="points">
              <mxPoint x="1732" y="233" />
            </Array>
          </mxGeometry>
        </mxCell>
        <mxCell id="-KrzIHBW4Un-FwNq5tkQ-67" value="Wait" style="curved=1;startArrow=none;endArrow=block;exitX=1.01;exitY=0.72;entryX=0.5;entryY=0;rounded=0;" edge="1" parent="1" source="-KrzIHBW4Un-FwNq5tkQ-32" target="-KrzIHBW4Un-FwNq5tkQ-36">
          <mxGeometry relative="1" as="geometry">
            <Array as="points">
              <mxPoint x="1907" y="233" />
            </Array>
          </mxGeometry>
        </mxCell>
        <mxCell id="-KrzIHBW4Un-FwNq5tkQ-68" value="" style="curved=1;startArrow=none;endArrow=block;exitX=0.72;exitY=-0.01;entryX=1;entryY=0.72;rounded=0;" edge="1" parent="1" source="-KrzIHBW4Un-FwNq5tkQ-11" target="-KrzIHBW4Un-FwNq5tkQ-5">
          <mxGeometry relative="1" as="geometry">
            <Array as="points">
              <mxPoint x="1614" y="1670" />
              <mxPoint x="1614" y="1284" />
            </Array>
          </mxGeometry>
        </mxCell>
        <mxCell id="-KrzIHBW4Un-FwNq5tkQ-69" value="" style="curved=1;startArrow=none;endArrow=block;exitX=0.77;exitY=-0.01;entryX=1;entryY=0.59;rounded=0;" edge="1" parent="1" source="-KrzIHBW4Un-FwNq5tkQ-14" target="-KrzIHBW4Un-FwNq5tkQ-5">
          <mxGeometry relative="1" as="geometry">
            <Array as="points">
              <mxPoint x="1963" y="1799" />
              <mxPoint x="1963" y="1284" />
            </Array>
          </mxGeometry>
        </mxCell>
        <mxCell id="-KrzIHBW4Un-FwNq5tkQ-70" value="" style="curved=1;startArrow=none;endArrow=block;exitX=0.91;exitY=-0.01;entryX=1;entryY=0.56;rounded=0;" edge="1" parent="1" source="-KrzIHBW4Un-FwNq5tkQ-17" target="-KrzIHBW4Un-FwNq5tkQ-5">
          <mxGeometry relative="1" as="geometry">
            <Array as="points">
              <mxPoint x="2285" y="1799" />
              <mxPoint x="2285" y="1284" />
            </Array>
          </mxGeometry>
        </mxCell>
        <mxCell id="-KrzIHBW4Un-FwNq5tkQ-71" value="" style="curved=1;startArrow=none;endArrow=block;exitX=0.68;exitY=-0.01;entryX=0;entryY=0.55;rounded=0;" edge="1" parent="1" source="-KrzIHBW4Un-FwNq5tkQ-22" target="-KrzIHBW4Un-FwNq5tkQ-5">
          <mxGeometry relative="1" as="geometry">
            <Array as="points">
              <mxPoint x="272" y="1670" />
              <mxPoint x="272" y="1284" />
            </Array>
          </mxGeometry>
        </mxCell>
        <mxCell id="-KrzIHBW4Un-FwNq5tkQ-72" value="" style="curved=1;startArrow=none;endArrow=block;exitX=0.67;exitY=-0.01;entryX=0;entryY=0.57;rounded=0;" edge="1" parent="1" source="-KrzIHBW4Un-FwNq5tkQ-23" target="-KrzIHBW4Un-FwNq5tkQ-5">
          <mxGeometry relative="1" as="geometry">
            <Array as="points">
              <mxPoint x="548" y="1670" />
              <mxPoint x="548" y="1284" />
            </Array>
          </mxGeometry>
        </mxCell>
        <mxCell id="-KrzIHBW4Un-FwNq5tkQ-73" value="" style="curved=1;startArrow=none;endArrow=block;exitX=0.69;exitY=-0.01;entryX=0;entryY=0.61;rounded=0;" edge="1" parent="1" source="-KrzIHBW4Un-FwNq5tkQ-24" target="-KrzIHBW4Un-FwNq5tkQ-5">
          <mxGeometry relative="1" as="geometry">
            <Array as="points">
              <mxPoint x="833" y="1670" />
              <mxPoint x="833" y="1284" />
            </Array>
          </mxGeometry>
        </mxCell>
        <mxCell id="-KrzIHBW4Un-FwNq5tkQ-74" value="" style="curved=1;startArrow=none;endArrow=block;exitX=0.65;exitY=-0.01;entryX=0;entryY=0.73;rounded=0;" edge="1" parent="1" source="-KrzIHBW4Un-FwNq5tkQ-25" target="-KrzIHBW4Un-FwNq5tkQ-5">
          <mxGeometry relative="1" as="geometry">
            <Array as="points">
              <mxPoint x="1094" y="1670" />
              <mxPoint x="1094" y="1284" />
            </Array>
          </mxGeometry>
        </mxCell>
        <mxCell id="-KrzIHBW4Un-FwNq5tkQ-75" value="" style="curved=1;startArrow=none;endArrow=block;exitX=0.5;exitY=1;entryX=0;entryY=0.36;rounded=0;" edge="1" parent="1" source="-KrzIHBW4Un-FwNq5tkQ-29" target="-KrzIHBW4Un-FwNq5tkQ-5">
          <mxGeometry relative="1" as="geometry">
            <Array as="points">
              <mxPoint x="980" y="1066" />
            </Array>
          </mxGeometry>
        </mxCell>
        <mxCell id="-KrzIHBW4Un-FwNq5tkQ-76" value="" style="curved=1;startArrow=none;endArrow=block;exitX=0.5;exitY=1;entryX=0.15;entryY=0;rounded=0;" edge="1" parent="1" source="-KrzIHBW4Un-FwNq5tkQ-31" target="-KrzIHBW4Un-FwNq5tkQ-5">
          <mxGeometry relative="1" as="geometry">
            <Array as="points">
              <mxPoint x="1277" y="1066" />
            </Array>
          </mxGeometry>
        </mxCell>
        <mxCell id="-KrzIHBW4Un-FwNq5tkQ-77" value="" style="curved=1;startArrow=none;endArrow=block;exitX=0.5;exitY=1;entryX=1;entryY=0.22;rounded=0;" edge="1" parent="1" source="-KrzIHBW4Un-FwNq5tkQ-33" target="-KrzIHBW4Un-FwNq5tkQ-5">
          <mxGeometry relative="1" as="geometry">
            <Array as="points">
              <mxPoint x="1532" y="1066" />
            </Array>
          </mxGeometry>
        </mxCell>
        <mxCell id="-KrzIHBW4Un-FwNq5tkQ-78" value="" style="curved=1;startArrow=none;endArrow=block;exitX=0.5;exitY=1.01;entryX=0.5;entryY=0.01;rounded=0;" edge="1" parent="1" source="-KrzIHBW4Un-FwNq5tkQ-34" target="-KrzIHBW4Un-FwNq5tkQ-26">
          <mxGeometry relative="1" as="geometry">
            <Array as="points" />
          </mxGeometry>
        </mxCell>
        <mxCell id="-KrzIHBW4Un-FwNq5tkQ-79" value="" style="curved=1;startArrow=none;endArrow=block;exitX=0.5;exitY=1;entryX=1;entryY=0.37;rounded=0;" edge="1" parent="1" source="-KrzIHBW4Un-FwNq5tkQ-35" target="-KrzIHBW4Un-FwNq5tkQ-5">
          <mxGeometry relative="1" as="geometry">
            <Array as="points">
              <mxPoint x="1732" y="1066" />
            </Array>
          </mxGeometry>
        </mxCell>
        <mxCell id="-KrzIHBW4Un-FwNq5tkQ-80" value="" style="curved=1;startArrow=none;endArrow=block;exitX=0.5;exitY=1;entryX=1;entryY=0.41;rounded=0;" edge="1" parent="1" source="-KrzIHBW4Un-FwNq5tkQ-36" target="-KrzIHBW4Un-FwNq5tkQ-5">
          <mxGeometry relative="1" as="geometry">
            <Array as="points">
              <mxPoint x="1907" y="1066" />
            </Array>
          </mxGeometry>
        </mxCell>
        <mxCell id="-KrzIHBW4Un-FwNq5tkQ-81" value="Exit Request" style="curved=1;startArrow=none;endArrow=block;exitX=0.02;exitY=1;entryX=0.49;entryY=0;rounded=0;" edge="1" parent="1" source="-KrzIHBW4Un-FwNq5tkQ-5" target="-KrzIHBW4Un-FwNq5tkQ-37">
          <mxGeometry relative="1" as="geometry">
            <Array as="points">
              <mxPoint x="1239" y="1284" />
            </Array>
          </mxGeometry>
        </mxCell>
      </root>
    </mxGraphModel>
  </diagram>
</mxfile>
